<svg width="585" height="377" viewBox="0 0 585 377" fill="none" xmlns="http://www.w3.org/2000/svg">
<rect width="585" height="377" fill="#F5F5F5"/>
<rect x="0.5" y="0.5" width="584" height="376" rx="9.5" fill="#7869C4" stroke="black"/>
<rect x="22.5" y="69.5" width="14" height="118" rx="7" fill="white" stroke="black"/>
<rect x="551.5" y="188.5" width="13" height="118" rx="6.5" fill="white" stroke="black"/>
<rect x="293.5" y="9.5" width="6" height="30" fill="white" stroke="black"/>
<rect x="293.5" y="74.5" width="6" height="30" fill="white" stroke="black"/>
<rect x="293.5" y="139.5" width="6" height="30" fill="white" stroke="black"/>
<rect x="293.5" y="204.5" width="6" height="30" fill="white" stroke="black"/>
<rect x="293.5" y="269.5" width="6" height="30" fill="white" stroke="black"/>
<rect x="293.5" y="334.5" width="6" height="30" fill="white" stroke="black"/>
<path d="M372.5 116.5C372.5 122.519 366.963 127.5 360 127.5C353.037 127.5 347.5 122.519 347.5 116.5C347.5 110.481 353.037 105.5 360 105.5C366.963 105.5 372.5 110.481 372.5 116.5Z" fill="white" stroke="black"/>
</svg>
