<svg width="585" height="377" viewBox="0 0 585 377" fill="none" xmlns="http://www.w3.org/2000/svg">
<rect width="585" height="377" fill="#F5F5F5"/>
<rect width="585" height="377" rx="10" fill="#404040"/>
<rect x="22" y="69" width="63" height="119" rx="10" fill="white"/>
<rect x="481" y="188" width="84" height="119" rx="10" fill="white"/>
<rect x="293" y="9" width="7" height="31" fill="white"/>
<rect x="293" y="74" width="7" height="31" fill="white"/>
<rect x="293" y="139" width="7" height="31" fill="white"/>
<rect x="293" y="204" width="7" height="31" fill="white"/>
<rect x="293" y="269" width="7" height="31" fill="white"/>
<rect x="293" y="334" width="7" height="31" fill="white"/>
<path d="M196.5 176L206.042 196.384H236.92L211.939 208.982L221.481 229.366L196.5 216.768L171.519 229.366L181.061 208.982L156.08 196.384H186.958L196.5 176Z" fill="#D9D9D9"/>
</svg>
