<?xml version="1.0" encoding="UTF-8"?>
<svg xmlns="http://www.w3.org/2000/svg" xmlns:xlink="http://www.w3.org/1999/xlink" viewBox="0 0 50 50" width="50px" height="50px">
<g id="surface96471400">
<path style=" stroke:none;fill-rule:nonzero;fill:rgb(40.784314%,45.882353%,54.11765%);fill-opacity:1;" d="M 25 4 C 21.6875 4 19 6.6875 19 10 C 19 13.3125 21.6875 16 25 16 C 28.3125 16 31 13.3125 31 10 C 31 6.6875 28.3125 4 25 4 Z M 23 17.867188 C 22.414062 17.988281 21.835938 18.15625 21.273438 18.382812 L 3.207031 25.632812 C 1.59375 26.277344 1.519531 28.53125 3.082031 29.285156 L 18.484375 36.714844 C 22.601562 38.699219 27.398438 38.699219 31.511719 36.714844 L 46.914062 29.285156 C 48.480469 28.53125 48.40625 26.277344 46.792969 25.632812 L 28.722656 18.382812 C 28.164062 18.15625 27.585938 17.988281 27 17.867188 L 27 27.914062 C 27 29.019531 26.105469 29.914062 25 29.914062 C 23.894531 29.914062 23 29.019531 23 27.914062 Z M 11.5 26 C 13.433594 26 15 26.894531 15 28 C 15 29.105469 13.433594 30 11.5 30 C 9.566406 30 8 29.105469 8 28 C 8 26.894531 9.566406 26 11.5 26 Z M 2.917969 32.554688 C 2.429688 32.59375 2 33 2 33.550781 L 2 36.257812 C 2 36.644531 2.21875 36.992188 2.570312 37.15625 L 17.496094 44.300781 C 22.242188 46.566406 27.757812 46.566406 32.503906 44.300781 L 47.429688 37.160156 C 47.78125 36.992188 48 36.640625 48 36.257812 L 48 33.558594 C 48 32.820312 47.234375 32.335938 46.574219 32.660156 C 42.71875 34.523438 32.382812 39.515625 32.382812 39.515625 C 30.09375 40.621094 27.539062 41.203125 25 41.203125 C 22.460938 41.203125 19.902344 40.621094 17.613281 39.515625 C 17.613281 39.515625 7.269531 34.515625 3.417969 32.65625 C 3.253906 32.574219 3.082031 32.542969 2.917969 32.554688 Z M 2.917969 32.554688 "/>
</g>
</svg>
