<?xml version="1.0" encoding="iso-8859-1"?>
<!-- Generator: Adobe Illustrator 18.0.0, SVG Export Plug-In . SVG Version: 6.00 Build 0)  -->
<!DOCTYPE svg PUBLIC "-//W3C//DTD SVG 1.1//EN" "http://www.w3.org/Graphics/SVG/1.1/DTD/svg11.dtd">
<svg version="1.1" id="Capa_1" xmlns="http://www.w3.org/2000/svg" xmlns:xlink="http://www.w3.org/1999/xlink" x="0px" y="0px"
	 viewBox="0 0 297 297" style="enable-background:new 0 0 297 297;" xml:space="preserve">
<g>
	<path d="M253.876,208.457c-23.778,0-43.124,19.346-43.124,43.124s19.346,43.124,43.124,43.124S297,275.359,297,251.581
		S277.654,208.457,253.876,208.457z M253.876,274.647c-12.719,0-23.066-10.347-23.066-23.066c0-12.719,10.347-23.066,23.066-23.066
		s23.066,10.347,23.066,23.066C276.942,264.3,266.595,274.647,253.876,274.647z"/>
	<path d="M264.846,118.922c0-31.152-12.131-60.44-34.159-82.468S179.371,2.295,148.219,2.295s-60.44,12.131-82.468,34.159
		C46.13,56.076,34.128,82.098,31.957,109.725c-1.923,24.454,3.911,48.869,16.505,69.644L2.937,224.895
		c-3.917,3.917-3.917,10.267,0,14.183l25.126,25.126c1.959,1.958,4.525,2.937,7.092,2.937c2.567,0,5.133-0.979,7.092-2.937
		l45.525-45.525c20.776,12.594,45.189,18.421,69.644,16.505c27.627-2.17,53.649-14.173,73.271-33.793
		C252.716,179.363,264.846,150.074,264.846,118.922z M92.274,197.647c-3.99-2.843-9.449-2.389-12.912,1.075l-44.207,44.207
		l-10.943-10.943l44.207-44.207c3.463-3.464,3.918-8.923,1.075-12.912c-13.472-18.905-19.252-41.124-17.699-62.809l103.287,103.287
		C133.397,216.898,111.178,211.118,92.274,197.647z M178.723,210.619L56.522,88.417c4.63-13.842,12.451-26.819,23.412-37.78
		c37.653-37.653,98.917-37.653,136.57,0c37.653,37.652,37.653,98.918,0,136.57C205.543,198.168,192.565,205.989,178.723,210.619z"/>
</g>
<g>
</g>
<g>
</g>
<g>
</g>
<g>
</g>
<g>
</g>
<g>
</g>
<g>
</g>
<g>
</g>
<g>
</g>
<g>
</g>
<g>
</g>
<g>
</g>
<g>
</g>
<g>
</g>
<g>
</g>
</svg>
