<svg xmlns="http://www.w3.org/2000/svg" xmlns:xlink="http://www.w3.org/1999/xlink" version="1.1" id="Capa_1" x="0px" y="0px" viewBox="0 0 439.169 439.169" style="enable-background:new 0 0 439.169 439.169;" xml:space="preserve">
<g>
	<path d="M429.169,321.917H264.503c-5.523,0-10-4.478-10-10v-31.333c0-5.522,4.477-10,10-10h164.667c5.523,0,10,4.478,10,10   c0,5.523-4.477,10-10,10H274.503v11.333h154.667c5.523,0,10,4.478,10,10S434.692,321.917,429.169,321.917z M262.195,406.048   l-21.054,6.982c-2.658-53.751-21.659-88.801-37.828-109.211c-9.498-11.989-19.068-20.381-26.448-25.87   c11.62-11.767,19.681-30.638,26.972-54.044c1.005-3.218,1.969-6.335,2.89-9.371c5.664,3.659,11.706,6.776,18.048,9.247   c11.052,4.305,22.363,6.444,33.529,6.444c7.265,0,14.469-0.907,21.501-2.713l-0.429,1.353c-1.67,5.264,1.243,10.886,6.507,12.556   c1.006,0.319,2.025,0.472,3.027,0.472c4.241,0,8.178-2.721,9.529-6.979l10.518-33.148c2.744,0.424,5.747,0.705,8.911,0.705   c0.001,0,0.001,0,0.002,0c9.117,0,17.079-2.431,23.024-7.027c6.086-4.707,10.449-11.117,12.968-19.054   c7.525-23.718-5.647-49.136-29.365-56.661c-4.44-1.409-9.034-2.123-13.657-2.123c-19.746,0-37.028,12.653-43.004,31.487   c-2.518,7.937-2.65,15.691-0.391,23.046c3.7,12.042,14.194,19.436,22.458,23.551l-2.487,7.836   c-17.213,8.279-36.734,8.88-55.382,1.617c-7.063-2.751-13.664-6.489-19.622-11.011c3.233-13.288,4.711-24.6,3.196-34.475   c-3.768-24.564-25.481-34.043-41.482-39.035c-9.669-3.021-17.955-4.49-25.329-4.49c-11.986,0-21.103,3.894-28.398,10.553   c-17.877-10.981-36.054-16.613-54.141-16.746c-0.212-0.002-0.419-0.003-0.63-0.003c-19.775,0-38.654,6.866-54.629,19.875   c-4.283,3.487-4.927,9.786-1.439,14.068c3.487,4.283,9.786,4.927,14.068,1.439c24.009-19.549,54.462-20.336,84.641-2.569   c-6.959,12.667-11.98,28.78-17.319,45.926c-11.263,36.046-12.423,57.288-4.006,73.321c1.606,3.06,3.549,5.865,5.841,8.444   c1.783,13.094,5.388,74.162-72.86,116.171c-1.899,1.02-3.417,2.625-4.33,4.577L0.943,422.545   c-2.338,5.003-0.177,10.955,4.826,13.293c1.369,0.64,2.809,0.942,4.227,0.942c3.763,0,7.368-2.134,9.066-5.769l13.265-28.385   c50.129-27.864,69.243-63.395,76.429-88.516c3.231-11.294,4.402-21.52,4.635-29.784c2.709,1.127,5.598,2.175,8.701,3.138   c8.399,2.608,15.785,3.876,22.578,3.876c4.906,0,9.407-0.65,13.562-1.894c5.739,3.522,17.999,12.138,30.093,27.667   c22.129,28.414,33.275,65.299,33.129,109.63c-0.011,3.218,1.528,6.244,4.133,8.132c1.729,1.252,3.786,1.901,5.868,1.901   c1.056,0,2.119-0.167,3.147-0.509l33.888-11.238c5.242-1.738,8.082-7.397,6.344-12.639   C273.096,407.15,267.438,404.309,262.195,406.048z M286.898,155.143c3.328-10.489,12.949-17.536,23.94-17.536   c2.568,0,5.128,0.4,7.608,1.186c13.206,4.19,20.541,18.344,16.35,31.55c-1.265,3.986-3.331,7.109-6.139,9.281   c-3.045,2.355-7.547,2.849-10.789,2.849h-0.001c-3.964,0-8.449-0.73-12.628-2.058c-7.904-2.507-16.744-7.855-18.677-14.146   C285.519,162.874,285.633,159.131,286.898,155.143z M128.023,268.366c-12.347-3.834-19.773-8.812-23.371-15.665   c-5.529-10.531-3.867-28.438,5.391-58.069c13.891-44.608,21.048-58.498,38.753-58.498c5.32,0,11.654,1.171,19.368,3.581   c22.29,6.954,26.474,15.153,27.674,22.977c0.622,4.051,0.45,8.776-0.317,14.153c-4.488-6.226-8.069-13.069-10.522-20.321   c-1.769-5.23-7.443-8.039-12.676-6.269c-5.232,1.77-8.039,7.444-6.269,12.677c4.832,14.287,13.122,27.306,23.847,38.018   c-1.528,5.293-3.269,10.956-5.157,17.001c-13.849,44.46-25.601,53.392-40.074,53.392   C139.918,271.341,134.473,270.368,128.023,268.366z" fill="#7869c4"/>
	<path d="M182.049,117.773c3.112,0.507,6.277,0.764,9.408,0.764c28.565,0,52.635-20.506,57.233-48.758   c5.143-31.597-16.384-61.487-47.985-66.631c-3.094-0.504-6.242-0.759-9.358-0.759c-13.626,0-26.907,4.865-37.395,13.7   c-10.604,8.932-17.667,21.373-19.89,35.033C128.917,82.73,150.444,112.63,182.049,117.773z M153.802,54.336   c2.964-18.213,19.105-31.946,37.545-31.946c2.043,0,4.11,0.168,6.145,0.499c20.717,3.372,34.829,22.966,31.458,43.678   c-3.015,18.524-18.783,31.971-37.493,31.971c-2.058,0-4.143-0.17-6.196-0.504C164.541,94.661,150.429,75.058,153.802,54.336z" fill="#7869c4"/>
	<path d="M344.336,226.87c0,17.093,13.907,30.999,31.001,30.999c17.093,0,30.999-13.906,30.999-30.999   c0-17.094-13.906-31.001-30.999-31.001C358.243,195.869,344.336,209.776,344.336,226.87z M375.337,215.869   c6.065,0,10.999,4.934,10.999,11.001c0,6.064-4.934,10.999-10.999,10.999c-6.066,0-11.001-4.935-11.001-10.999   C364.336,220.803,369.271,215.869,375.337,215.869z" fill="#7869c4"/>
</g>
<g>
</g>
<g>
</g>
<g>
</g>
<g>
</g>
<g>
</g>
<g>
</g>
<g>
</g>
<g>
</g>
<g>
</g>
<g>
</g>
<g>
</g>
<g>
</g>
<g>
</g>
<g>
</g>
<g>
</g>
</svg>