<?xml version="1.0" encoding="UTF-8"?>
<svg xmlns="http://www.w3.org/2000/svg" xmlns:xlink="http://www.w3.org/1999/xlink" viewBox="0 0 50 50" width="50px" height="50px">
<g id="surface96477196">
<path style=" stroke:none;fill-rule:nonzero;fill:rgb(40.784314%,45.882353%,54.11765%);fill-opacity:1;" d="M 36.875 -0.03125 C 32.851562 0.0820312 27.898438 0.722656 25.09375 3.53125 L 24.40625 4.1875 C 19.851562 8.773438 19.886719 15.988281 24.46875 20.59375 L 29.46875 25.59375 C 31.691406 27.824219 34.609375 29.0625 37.6875 29.0625 C 40.730469 29.0625 43.617188 27.824219 45.8125 25.625 L 46.46875 24.96875 C 49.957031 21.484375 49.988281 14.289062 50 11.21875 C 50.003906 10.679688 49.882812 10.257812 49.59375 9.96875 C 49.359375 9.734375 49.023438 9.625 48.6875 9.625 C 48.152344 9.625 47.738281 9.9375 47.53125 10.125 L 41.03125 16.65625 C 40.894531 16.679688 40.578125 16.71875 39.96875 16.71875 C 37.78125 16.71875 34.726562 16.292969 33.96875 15.96875 C 33.464844 14.867188 33.074219 10.042969 33.40625 9.03125 C 34.421875 8.015625 39.960938 2.445312 40 2.40625 C 40.175781 2.207031 40.75 1.515625 40.40625 0.75 C 40.273438 0.457031 39.914062 -0.0273438 38.96875 -0.03125 L 38.53125 -0.03125 C 38.003906 -0.03125 37.449219 -0.046875 36.875 -0.03125 Z M 21.375 19.9375 L 2.3125 37.28125 C 0.292969 39.304688 -1.496094 43.9375 2.3125 47.75 C 4.066406 49.503906 5.902344 49.96875 7.375 49.96875 C 7.753906 49.96875 8.085938 49.925781 8.40625 49.875 C 10.3125 49.589844 11.902344 48.601562 12.78125 47.71875 L 30.09375 28.65625 L 28.5 27.4375 L 22.59375 21.53125 Z M 21.375 19.9375 "/>
</g>
</svg>
